Coordinates
version=1
nRows=10
nColumns=40
inDegrees=yes

Units are S.I. units (second, meters, Newtons, ...)
If the header above contains a line with 'inDegrees', this indicates whether rotational values are in degrees (yes) or radians (no).

endheader
time	pelvis_tilt	pelvis_list	pelvis_rotation	pelvis_tx	pelvis_ty	pelvis_tz	hip_flexion_r	hip_adduction_r	hip_rotation_r	knee_angle_r	knee_angle_r_beta	ankle_angle_r	subtalar_angle_r	mtp_angle_r	hip_flexion_l	hip_adduction_l	hip_rotation_l	knee_angle_l	knee_angle_l_beta	ankle_angle_l	subtalar_angle_l	mtp_angle_l	lumbar_extension	lumbar_bending	lumbar_rotation	arm_flex_r	arm_add_r	arm_rot_r	elbow_flex_r	pro_sup_r	wrist_flex_r	wrist_dev_r	arm_flex_l	arm_add_l	arm_rot_l	elbow_flex_l	pro_sup_l	wrist_flex_l	wrist_dev_l
      0.00500000	      3.93212206	      1.50641354	     -1.26006072	      0.25789586	      0.94618128	     -1.22183269	     -3.00613608	     -7.47767683	    -20.46826199	      8.51823591	      0.14867126	      3.66371227	      8.35939492	      0.00000000	     -3.32141306	     -3.03078400	    -25.05960251	      9.53716920	      0.16645500	      4.39621679	     12.00773529	      0.00000000	     -2.38705300	     -0.04687846	     -1.42893987	     18.58713254	     -8.63350483	     18.58713254	     76.39294874	     46.53601322	      0.00000000	      0.00000000	     18.58713254	     -8.63350483	     18.58713254	     76.39294874	     46.53601322	      0.00000000	      0.00000000
      0.01000000	      4.07756328	      1.37374784	     -1.26581424	      0.25777804	      0.94646450	     -1.22180883	     -3.25667339	     -7.26262743	    -20.26020828	      8.28924551	      0.14467463	      3.51692466	      8.01964408	      0.00000000	     -3.52931231	     -3.12817106	    -24.87199111	      9.42325318	      0.16446679	      4.40975166	     11.65880207	      0.00000000	     -2.59935752	     -0.08673969	     -1.74789964	     22.05752240	     -9.83480939	     22.05752240	     75.99498226	     45.86826800	      0.00000000	      0.00000000	     22.05752240	     -9.83480939	     22.05752240	     75.99498226	     45.86826800	      0.00000000	      0.00000000
      0.01500000	      4.03030761	      1.37471104	     -1.28963793	      0.25774897	      0.94640954	     -1.22176064	     -3.21786470	     -7.24339430	    -20.14837852	      8.23194327	      0.14367451	      3.45153044	      7.89841952	      0.00000000	     -3.47744524	     -3.12580135	    -24.87989319	      9.41872739	      0.16438780	      4.38975081	     11.69032161	      0.00000000	     -2.53726576	     -0.05282972	     -1.70142599	     23.22708843	    -10.21753615	     23.22708843	     75.88123385	     45.71559407	      0.00000000	      0.00000000	     23.22708843	    -10.21753615	     23.22708843	     75.88123385	     45.71559407	      0.00000000	      0.00000000
      0.02000000	      4.04503276	      1.33783902	     -1.29182181	      0.25771631	      0.94642409	     -1.22173612	     -3.25653343	     -7.18370643	    -20.09460134	      8.17396269	      0.14266256	      3.41652336	      7.82637935	      0.00000000	     -3.48036668	     -3.17996783	    -24.90645902	      9.45898043	      0.16509035	      4.42467331	     11.72687657	      0.00000000	     -2.55646484	      0.04357069	     -1.60221585	     24.97239943	    -10.74862684	     24.97239943	     75.74791630	     45.60058141	      0.00000000	      0.00000000	     24.97239943	    -10.74862684	     24.97239943	     75.74791630	     45.60058141	      0.00000000	      0.00000000
      0.02500000	      4.04862472	      1.33614762	     -1.31455997	      0.25769771	      0.94643078	     -1.22169256	     -3.25415685	     -7.18243189	    -20.07424845	      8.17401791	      0.14266353	      3.42340775	      7.82885509	      0.00000000	     -3.48458824	     -3.18309791	    -24.94021432	      9.46286354	      0.16515813	      4.42439132	     11.73859994	      0.00000000	     -2.55696044	      0.04554302	     -1.58115608	     26.30179115	    -11.15270782	     26.30179115	     75.64349109	     45.49451233	      0.00000000	      0.00000000	     26.30179115	    -11.15270782	     26.30179115	     75.64349109	     45.49451233	      0.00000000	      0.00000000
      0.03000000	      4.02098823	      1.41010821	     -1.24332954	      0.25781340	      0.94627811	     -1.22187258	     -3.09500395	     -7.37999203	    -20.56375707	      8.54392093	      0.14911955	      3.74870861	      8.42838157	      0.00000000	     -3.38182564	     -3.15755520	    -25.09679670	      9.63680420	      0.16819396	      4.54022667	     12.04288078	      0.00000000	     -2.49011918	     -0.02941573	     -1.64814196	     27.36374910	    -11.45883588	     27.36374910	     75.57235714	     45.43329332	      0.00000000	      0.00000000	     27.36374910	    -11.45883588	     27.36374910	     75.57235714	     45.43329332	      0.00000000	      0.00000000
      0.03500000	      4.05246345	      1.36670175	     -1.34369269	      0.25763996	      0.94644541	     -1.22162792	     -3.25670852	     -7.20978045	    -20.01325566	      8.14917103	      0.14222987	      3.38102422	      7.78166499	      0.00000000	     -3.50298692	     -3.13721202	    -24.93149746	      9.42404415	      0.16448060	      4.39627976	     11.71781067	      0.00000000	     -2.55374715	     -0.01354044	     -1.57067739	     28.87077526	    -11.90104888	     28.87077526	     75.46169054	     45.30415897	      0.00000000	      0.00000000	     28.87077526	    -11.90104888	     28.87077526	     75.46169054	     45.30415897	      0.00000000	      0.00000000
      0.04000000	      4.04288407	      1.33616161	     -1.27463156	      0.25767676	      0.94640744	     -1.22176775	     -3.24327189	     -7.19484821	    -20.19755618	      8.20401455	      0.14318707	      3.44962852	      7.92926632	      0.00000000	     -3.46105799	     -3.19211017	    -24.91777266	      9.49102686	      0.16564967	      4.45572275	     11.80322317	      0.00000000	     -2.53164090	      0.07962705	     -1.57757211	     29.86565874	    -12.17435243	     29.86565874	     75.40255794	     45.25421572	      0.00000000	      0.00000000	     29.86565874	    -12.17435243	     29.86565874	     75.40255794	     45.25421572	      0.00000000	      0.00000000
      0.04500000	      4.05717776	      1.32875032	     -1.37498111	      0.25762124	      0.94644776	     -1.22154946	     -3.26036145	     -7.15980682	    -19.97076113	      8.13668492	      0.14201194	      3.38254651	      7.74432491	      0.00000000	     -3.50379621	     -3.19314871	    -25.00526199	      9.45207990	      0.16496992	      4.40261516	     11.78543455	      0.00000000	     -2.55326540	      0.08693984	     -1.45750206	     30.84850996	    -12.43965153	     30.84850996	     75.34704730	     45.21517988	      0.00000000	      0.00000000	     30.84850996	    -12.43965153	     30.84850996	     75.34704730	     45.21517988	      0.00000000	      0.00000000
      0.05000000	      4.05508405	      1.34485869	     -1.31474853	      0.25761896	      0.94642704	     -1.22168558	     -3.25200774	     -7.19657263	    -20.10626696	      8.18433816	      0.14284365	      3.43637217	      7.85076580	      0.00000000	     -3.48526406	     -3.17500838	    -24.94301455	      9.46464699	      0.16518925	      4.41306774	     11.77311612	      0.00000000	     -2.53809006	      0.01055273	     -1.63188241	     31.83387265	    -12.69471841	     31.83387265	     75.29599830	     45.17135633	      0.00000000	      0.00000000	     31.83387265	    -12.69471841	     31.83387265	     75.29599830	     45.17135633	      0.00000000	      0.00000000
